<?xml version="1.0" encoding="utf-8"?>
<svg fill="white" xmlns="http://www.w3.org/2000/svg" viewBox="16.639 17.694 466.273 465.068" width="466.273px" height="465.068px"><defs><clipPath clipPathUnits="userSpaceOnUse" id="clipPath2"><path d="M -257.1 831.419 L 1564.23 831.419 L 1564.23 -192.58 L -257.1 -192.58 L -257.1 831.419 Z" id="path2" style="stroke-width: 1.333;"/></clipPath><clipPath clipPathUnits="userSpaceOnUse" id="clipPath4"><path d="M -257.1 942.995 L 1564.23 942.995 L 1564.23 -81.006 L -257.1 -81.006 L -257.1 942.995 Z" id="path4" style="stroke-width: 1.333;"/></clipPath><clipPath clipPathUnits="userSpaceOnUse" id="clipPath6"><path d="M -257.1 990.777 L 1564.23 990.777 L 1564.23 -33.222 L -257.1 -33.222 L -257.1 990.777 Z" id="path6" style="stroke-width: 1.333;"/></clipPath><clipPath clipPathUnits="userSpaceOnUse" id="clipPath8"><path d="M -257.1 824.59 L 1564.23 824.59 L 1564.23 -199.41 L -257.1 -199.41 L -257.1 824.59 Z" id="path8" style="stroke-width: 1.333;"/></clipPath><clipPath clipPathUnits="userSpaceOnUse" id="clipPath10"><path d="M -257.11 726.571 L 1564.24 726.571 L 1564.24 -297.47 L -257.11 -297.47 L -257.11 726.571 Z" id="path10" style="stroke-width: 1.333;"/></clipPath><clipPath clipPathUnits="userSpaceOnUse" id="clipPath12"><path d="M -257.1 857.579 L 1564.23 857.579 L 1564.23 -166.42 L -257.1 -166.42 L -257.1 857.579 Z" id="path12" style="stroke-width: 1.333;"/></clipPath><clipPath clipPathUnits="userSpaceOnUse" id="clipPath16"><path d="M -257.09 739.172 L 1564.22 739.172 L 1564.22 -284.83 L -257.09 -284.83 L -257.09 739.172 Z" id="path16" style="stroke-width: 1.333;"/></clipPath><clipPath clipPathUnits="userSpaceOnUse" id="clipPath18"><path d="M -257.11 717.844 L 1564.24 717.844 L 1564.24 -306.16 L -257.11 -306.16 L -257.11 717.844 Z" id="path18" style="stroke-width: 1.333;"/></clipPath><clipPath clipPathUnits="userSpaceOnUse" id="clipPath20"><path d="M -257.1 717.84 L 1564.23 717.84 L 1564.23 -306.16 L -257.1 -306.16 L -257.1 717.84 Z" id="path20" style="stroke-width: 1.333;"/></clipPath><clipPath clipPathUnits="userSpaceOnUse" id="clipPath22"><path d="M -257.1 510.138 L 1564.23 510.138 L 1564.23 -513.86 L -257.1 -513.86 L -257.1 510.138 Z" id="path22" style="stroke-width: 1.333;"/></clipPath><clipPath clipPathUnits="userSpaceOnUse" id="clipPath24"><path d="M -257.1 742.075 L 1564.23 742.075 L 1564.23 -281.29 L -257.1 -281.29 L -257.1 742.075 Z" id="path24" style="stroke-width: 1.333;"/></clipPath><clipPath clipPathUnits="userSpaceOnUse" id="clipPath26"><path d="M -257.24 873.296 L 1564.61 873.296 L 1564.61 -150.7 L -257.24 -150.7 L -257.24 873.296 Z" id="path26" style="stroke-width: 1.334;"/></clipPath><clipPath clipPathUnits="userSpaceOnUse" id="clipPath28"><path d="M -257.12 407.322 L 1564.28 407.322 L 1564.28 -616.68 L -257.12 -616.68 L -257.12 407.322 Z" id="path28" style="stroke-width: 1.333;"/></clipPath><clipPath clipPathUnits="userSpaceOnUse" id="clipPath30"><path d="M -257.14 510.134 L 1564.41 510.134 L 1564.41 -513.86 L -257.14 -513.86 L -257.14 510.134 Z" id="path30" style="stroke-width: 1.333;"/></clipPath><clipPath clipPathUnits="userSpaceOnUse" id="clipPath32"><path d="M -257.12 515.444 L 1564.27 515.444 L 1564.27 -508.56 L -257.12 -508.56 L -257.12 515.444 Z" id="path32" style="stroke-width: 1.333;"/></clipPath><clipPath clipPathUnits="userSpaceOnUse" id="clipPath34"><path d="M -257.1 848.788 L 1564.22 848.788 L 1564.22 -175.22 L -257.1 -175.22 L -257.1 848.788 Z" id="path34" style="stroke-width: 1.333;"/></clipPath><clipPath clipPathUnits="userSpaceOnUse" id="clipPath36"><path d="M -257.1 979.337 L 1564.22 979.337 L 1564.22 -44.661 L -257.1 -44.661 L -257.1 979.337 Z" id="path36" style="stroke-width: 1.333;"/></clipPath><clipPath clipPathUnits="userSpaceOnUse" id="clipPath38"><path d="M -257.1 848.788 L 1564.23 848.788 L 1564.23 -175.22 L -257.1 -175.22 L -257.1 848.788 Z" id="path38" style="stroke-width: 1.333;"/></clipPath><clipPath clipPathUnits="userSpaceOnUse" id="clipPath40"><path d="M -257.1 979.327 L 1564.22 979.327 L 1564.22 -44.662 L -257.1 -44.662 L -257.1 979.327 Z" id="path40" style="stroke-width: 1.333;"/></clipPath></defs><g id="object-0" transform="matrix(1, 0, 0, 1, 0, 2.842170943040401e-14)"><path id="path1" d="M 430.039 278.027 C 428.503 290.723 425.575 302.987 421.399 314.675 L 335.119 294.827 L 336.607 278.027 L 430.039 278.027 Z" style="fill-opacity: 1; fill-rule: nonzero; stroke: none; stroke-width: 1.333;" clip-path="url(#clipPath2)"/><path id="path3" d="M 398.263 358.067 C 390.775 368.219 382.183 377.507 372.679 385.739 L 323.695 331.187 L 337.543 318.539 L 398.263 358.067 Z" style="fill-opacity: 1; fill-rule: nonzero; stroke: none; stroke-width: 1.333;" clip-path="url(#clipPath4)"/><path id="path5" d="M 322.159 415.955 C 311.407 420.083 300.127 423.107 288.463 424.955 L 288.463 328.643 L 302.695 327.107 L 322.159 415.955 Z" style="fill-opacity: 1; fill-rule: nonzero; stroke: none; stroke-width: 1.333;" clip-path="url(#clipPath6)"/><path id="path7" d="M 261.777 252.097 L 261.777 333.777 C 251.057 323.484 244.377 308.99 244.377 292.937 C 244.377 276.884 251.057 262.39 261.777 252.097" style="fill-opacity: 1; fill-rule: nonzero; stroke: none; stroke-width: 1.333;" clip-path="url(#clipPath8)"/><path id="path9" d="M 339.751 251.564 L 262.337 251.564 C 272.457 242.084 286.084 236.27 301.044 236.27 C 316.004 236.27 329.631 242.084 339.751 251.564" style="fill-opacity: 1; fill-rule: nonzero; stroke: none; stroke-width: 1.333;" clip-path="url(#clipPath10)"/><path id="path11" d="M 357.711 292.937 C 357.711 324.23 332.337 349.604 301.044 349.604 C 293.404 349.604 286.124 348.097 279.471 345.35 L 279.471 269.257 L 352.537 269.257 C 355.857 276.457 357.711 284.484 357.711 292.937" style="fill-opacity: 1; fill-rule: nonzero; stroke: none; stroke-width: 1.333;" clip-path="url(#clipPath12)"/><path id="path15" d="M 40.635 41.694 L 40.635 249.623 C 40.635 364.942 134.454 458.762 249.772 458.762 L 249.774 458.762 C 365.092 458.762 458.912 364.942 458.912 249.623 L 458.912 41.694 L 40.635 41.694 Z M 249.774 482.762 C 121.219 482.762 16.639 378.178 16.639 249.623 L 16.639 17.694 L 482.912 17.694 L 482.912 249.623 C 482.912 378.178 378.327 482.762 249.774 482.762" style="fill-opacity: 1; fill-rule: nonzero; stroke: none; stroke-width: 1.333;" clip-path="url(#clipPath16)"/><path id="path17" d="M 470.912 251.564 L 28.629 251.564 L 28.629 227.564 L 470.912 227.564 L 470.912 251.564 Z" style="fill-opacity: 1; fill-rule: nonzero; stroke: none; stroke-width: 1.333;" clip-path="url(#clipPath18)"/><path id="path19" d="M 261.772 460.702 L 237.772 460.702 L 237.772 18.423 L 261.772 18.423 L 261.772 460.702 Z" style="fill-opacity: 1; fill-rule: nonzero; stroke: none; stroke-width: 1.333;" clip-path="url(#clipPath20)"/><path id="path21" d="M 292.193 201.949 L 292.193 135.22 L 360.429 69.473 L 428.665 135.22 L 428.665 201.949 L 360.429 136.225 L 292.193 201.949 Z" style="fill-opacity: 1; fill-rule: nonzero; stroke: none; stroke-width: 1.333;" clip-path="url(#clipPath22)"/><path id="path23" d="M 262.337 251.564 C 262.151 251.737 261.964 251.91 261.777 252.097 L 261.777 251.564 L 262.337 251.564 Z" style="fill-opacity: 1; fill-rule: nonzero; stroke: none; stroke-width: 1.333;" clip-path="url(#clipPath24)"/><path id="path25" d="M 200.975 316.101 C 201.553 316.693 202.13 317.285 202.707 317.892 C 202.915 318.114 203.122 318.306 203.345 318.485 L 200.975 316.101 Z" style="fill-opacity: 1; fill-rule: nonzero; stroke: none; stroke-width: 1.333;" clip-path="url(#clipPath26)"/><path id="path27" d="M 203.348 99.133 L 70.839 99.133 L 70.839 69.473 L 203.348 69.473 L 203.348 99.133 Z" style="fill-opacity: 1; fill-rule: nonzero; stroke: none; stroke-width: 1.333;" clip-path="url(#clipPath28)"/><path id="path29" d="M 70.839 69.459 L 100.716 69.459 L 100.716 201.962 L 70.839 201.962 L 70.839 69.459 Z" style="fill-opacity: 1; fill-rule: nonzero; stroke: none; stroke-width: 1.333;" clip-path="url(#clipPath30)"/><path id="path31" d="M 184.776 201.334 L 76.759 93.32 L 94.691 75.392 L 202.704 183.406 L 184.776 201.334 Z" style="fill-opacity: 1; fill-rule: nonzero; stroke: none; stroke-width: 1.333;" clip-path="url(#clipPath32)"/><path id="path33" d="M 123.604 305.033 L 91.858 337.672 L 91.858 272.394 L 155.351 272.394 L 123.604 305.033 Z" style="fill-opacity: 1; fill-rule: nonzero; stroke: none; stroke-width: 1.333;" clip-path="url(#clipPath34)"/><path id="path35" d="M 187.097 370.311 L 155.35 337.672 L 218.843 337.672 L 218.843 402.949 L 187.097 370.311 Z" style="fill-opacity: 1; fill-rule: nonzero; stroke: none; stroke-width: 1.333;" clip-path="url(#clipPath36)"/><path id="path37" d="M 155.351 337.672 L 155.351 272.394 L 218.843 272.394 L 218.843 274.18 C 218.843 309.245 190.416 337.672 155.351 337.672" style="fill-opacity: 1; fill-rule: nonzero; stroke: none; stroke-width: 1.333;" clip-path="url(#clipPath38)"/><path id="path39" d="M 155.347 337.672 L 155.347 402.946 C 154.741 402.946 154.134 402.93 153.526 402.916 C 127.885 386.734 106.61 364.261 91.865 337.672 L 155.347 337.672 Z" style="fill-opacity: 1; fill-rule: nonzero; stroke: none; stroke-width: 1.333;" clip-path="url(#clipPath40)"/></g></svg>